<svg width="49" height="66" viewBox="0 0 49 66" fill="none" xmlns="http://www.w3.org/2000/svg">
<path d="M25.1456 0H23.9431V6.24119H25.1456V0Z" fill="#A4A4A4"/>
<path d="M10.2737 5.16775L9.42334 6.01807L13.8365 10.4312L14.6868 9.58089L10.2737 5.16775Z" fill="#A4A4A4"/>
<path d="M39.4609 5.17084L35.0478 9.58398L35.8981 10.4343L40.3112 6.02116L39.4609 5.17084Z" fill="#A4A4A4"/>
<path d="M48.7616 59.4535C48.6895 55.4611 47.2825 51.5047 44.8053 48.318C41.835 44.4939 40.3318 40.8742 40.3318 37.5552V32.5887C40.3318 28.3558 38.6483 24.3994 35.6058 21.4532C33.4413 19.3608 30.7716 18.0019 27.8975 17.4367V10.7386C27.8975 10.3297 27.5608 9.98096 27.1399 9.98096H22.5703C22.1614 9.98096 21.8127 10.3177 21.8127 10.7386V17.4367C14.7658 18.9038 9.37842 25.3735 9.37842 32.9375V37.6153C9.37842 38.2046 9.33032 38.8059 9.23411 39.4192C8.78917 42.173 7.3341 45.1553 4.91699 48.2819C2.45178 51.4806 1.04481 55.437 0.972656 59.4535C0.972656 59.6579 1.04481 59.8503 1.18911 59.9946L1.47772 60.2231H20.3095C20.2975 60.3554 20.2734 60.4756 20.2734 60.5959C20.2734 63.1934 22.3899 65.3099 24.9874 65.3099C27.5849 65.3099 29.7014 63.1934 29.7014 60.5959C29.7014 60.4636 29.6773 60.3434 29.6653 60.2231H48.0401C48.2445 60.2231 48.437 60.1389 48.5813 59.9946L48.7977 59.706L48.7616 59.4535ZM23.0393 11.1955H26.707V17.2563C25.9134 17.1601 25.1197 17.112 24.314 17.1361C23.8811 17.1481 23.4602 17.1962 23.0393 17.2443V11.1955ZM28.4748 60.5959C28.4748 62.532 26.8994 64.1073 24.9634 64.1073C23.0273 64.1073 21.4519 62.532 21.4519 60.5959C21.4519 60.4636 21.476 60.3434 21.488 60.2231H28.4267C28.4507 60.3434 28.4748 60.4756 28.4748 60.5959ZM2.18722 59.0206C2.34355 55.437 3.6423 51.9015 5.87902 49.0154C8.42841 45.7325 9.96766 42.5698 10.4367 39.6116C10.5449 38.9381 10.593 38.2647 10.593 37.6153V32.9375C10.593 25.145 16.762 18.5911 24.338 18.3266C28.2944 18.1582 31.9501 19.6013 34.7641 22.319C37.578 25.0368 39.1293 28.6805 39.1293 32.5887V37.5552C39.1293 41.1508 40.7166 45.023 43.8673 49.0515C46.092 51.9136 47.3907 55.425 47.5471 59.0085H2.18722V59.0206Z" fill="#A4A4A4"/>
</svg>
