<svg width="111" height="39" viewBox="0 0 111 39" fill="none" xmlns="http://www.w3.org/2000/svg">
<path d="M55.66 35.1299H54.66V38.1099H55.66V35.1299Z" fill="#A4A4A4"/>
<path d="M60.4307 32.9819L59.7236 33.689L61.8308 35.7961L62.5379 35.089L60.4307 32.9819Z" fill="#A4A4A4"/>
<path d="M49.5905 32.9801L47.484 35.0879L48.1913 35.7948L50.2978 33.687L49.5905 32.9801Z" fill="#A4A4A4"/>
<path d="M55.21 20.05L61.14 8.03H57.85L58.47 0L52.5 12.03H55.8L55.21 20.05ZM54.11 11.03L57.07 5.06L56.76 9.03H59.53L56.58 15.01L56.87 11.03H54.11Z" fill="#A4A4A4"/>
<path d="M73.34 21.0298C82.48 21.0298 87.13 21.5398 91.62 22.0298C96.14 22.5198 100.81 23.0298 110.01 23.0298V22.0298C100.87 22.0298 96.22 21.5198 91.73 21.0298C87.21 20.5398 82.54 20.0298 73.34 20.0298C71.04 20.0298 68.96 20.0598 66.99 20.1198L66.51 20.1398V23.2298H65.33C62.85 23.2298 60.83 21.8798 60.83 20.2298H59.83C59.83 21.4298 60.56 22.4998 61.71 23.2298H59.33V24.2298H61.71C60.56 24.9598 59.83 26.0398 59.83 27.2298H60.83C60.83 25.5798 62.85 24.2298 65.33 24.2298H66.51V27.1398L67.03 27.1198C68.99 27.0598 71.05 27.0298 73.35 27.0298C82.49 27.0298 87.14 27.5398 91.63 28.0298C96.15 28.5198 100.82 29.0298 110.02 29.0298V28.0298C100.88 28.0298 96.23 27.5198 91.74 27.0298C87.22 26.5398 82.55 26.0298 73.35 26.0298C71.25 26.0298 69.33 26.0598 67.52 26.1098V21.1098C69.32 21.0598 71.24 21.0298 73.34 21.0298Z" fill="#A4A4A4"/>
<path d="M50.83 21.5298H49.83C49.83 23.1798 47.81 24.5298 45.33 24.5298H43.51V21.9198L42.99 21.9398C41.03 21.9998 38.97 22.0298 36.67 22.0298C27.53 22.0298 22.88 21.5198 18.39 21.0298C13.87 20.5398 9.2 20.0298 0 20.0298V21.0298C9.14 21.0298 13.79 21.5398 18.28 22.0298C22.8 22.5198 27.47 23.0298 36.67 23.0298C38.78 23.0298 40.69 22.9998 42.51 22.9498V27.9498C40.7 27.9998 38.78 28.0298 36.67 28.0298C27.53 28.0298 22.88 27.5198 18.39 27.0298C13.87 26.5398 9.2 26.0298 0 26.0298V27.0298C9.14 27.0298 13.79 27.5398 18.28 28.0298C22.8 28.5198 27.47 29.0298 36.67 29.0298C38.98 29.0298 41.05 28.9998 43.02 28.9398L43.5 28.9198V25.5298H45.32C47.8 25.5298 49.82 26.8798 49.82 28.5298H50.82C50.82 27.3298 50.09 26.2598 48.95 25.5298H51.32V24.5298H48.94C50.1 23.7998 50.83 22.7298 50.83 21.5298Z" fill="#A4A4A4"/>
</svg>
