<svg width="48" height="66" viewBox="0 0 48 66" fill="none" xmlns="http://www.w3.org/2000/svg">
<path d="M24.1729 0H22.9704V6.24119H24.1729V0Z" fill="#737373"/>
<path d="M9.301 5.16775L8.45068 6.01807L12.8638 10.4312L13.7141 9.58089L9.301 5.16775Z" fill="#737373"/>
<path d="M38.4883 5.17084L34.0751 9.58398L34.9255 10.4343L39.3386 6.02116L38.4883 5.17084Z" fill="#737373"/>
<path d="M47.789 59.4535C47.7168 55.4611 46.3099 51.5047 43.8326 48.318C40.8623 44.4939 39.3592 40.8742 39.3592 37.5552V32.5887C39.3592 28.3558 37.6756 24.3994 34.6332 21.4532C32.4686 19.3608 29.799 18.0019 26.9249 17.4367V10.7386C26.9249 10.3297 26.5882 9.98096 26.1673 9.98096H21.5976C21.1888 9.98096 20.84 10.3177 20.84 10.7386V17.4367C13.7931 18.9038 8.40576 25.3735 8.40576 32.9375V37.6153C8.40576 38.2046 8.35766 38.8059 8.26146 39.4192C7.81652 42.173 6.36144 45.1553 3.94433 48.2819C1.47913 51.4806 0.0721525 55.437 0 59.4535C0 59.6579 0.0721525 59.8503 0.216457 59.9946L0.505067 60.2231H19.3369C19.3248 60.3554 19.3008 60.4756 19.3008 60.5959C19.3008 63.1934 21.4173 65.3099 24.0147 65.3099C26.6122 65.3099 28.7287 63.1934 28.7287 60.5959C28.7287 60.4636 28.7047 60.3434 28.6926 60.2231H47.0675C47.2719 60.2231 47.4643 60.1389 47.6086 59.9946L47.8251 59.706L47.789 59.4535ZM22.0666 11.1955H25.7344V17.2563C24.9407 17.1601 24.147 17.112 23.3413 17.1361C22.9084 17.1481 22.4875 17.1962 22.0666 17.2443V11.1955ZM27.5021 60.5959C27.5021 62.532 25.9268 64.1073 23.9907 64.1073C22.0546 64.1073 20.4793 62.532 20.4793 60.5959C20.4793 60.4636 20.5033 60.3434 20.5153 60.2231H27.454C27.4781 60.3434 27.5021 60.4756 27.5021 60.5959ZM1.21457 59.0206C1.3709 55.437 2.66964 51.9015 4.90637 49.0154C7.45575 45.7325 8.99501 42.5698 9.464 39.6116C9.57223 38.9381 9.62033 38.2647 9.62033 37.6153V32.9375C9.62033 25.145 15.7894 18.5911 23.3654 18.3266C27.3217 18.1582 30.9775 19.6013 33.7914 22.319C36.6053 25.0368 38.1566 28.6805 38.1566 32.5887V37.5552C38.1566 41.1508 39.744 45.023 42.8946 49.0515C45.1193 51.9136 46.4181 55.425 46.5744 59.0085H1.21457V59.0206Z" fill="#737373"/>
</svg>
