<svg width="70" height="58" viewBox="0 0 70 58" fill="none" xmlns="http://www.w3.org/2000/svg">
<g clip-path="url(#clip0_6033_9259)">
<path d="M53.2 19.9999C52.4 17.6999 51.1 15.4999 49.3 13.6999C49.1 13.4999 48.8 13.1999 48.6 12.9999C42.6 7.6999 33.5 7.6999 27.4 12.9999C27.1 13.1999 26.9 13.4999 26.7 13.6999C24.9 15.4999 23.6 17.6999 22.8 19.9999C21 25.4999 22.3 31.8999 26.7 36.2999C33 42.5999 43.1 42.5999 49.3 36.2999C53.7 31.8999 55 25.4999 53.2 19.9999ZM47.2 34.1999C42.1 39.2999 33.9 39.2999 28.8 34.1999C25 30.3999 24 24.6999 26 19.9999C26.6 18.4999 27.5 17.1999 28.6 15.9999C28.7 15.8999 28.7 15.8999 28.8 15.7999C30 14.5999 31.5 13.5999 33 12.9999C36.2 11.6999 39.8 11.6999 43 12.9999C44.5 13.5999 45.9 14.5999 47.2 15.7999C47.3 15.8999 47.3 15.8999 47.4 15.9999C48.5 17.1999 49.4 18.4999 50 19.9999C52 24.6999 51 30.3999 47.2 34.1999Z" stroke="#737373" stroke-miterlimit="10"/>
<path d="M65.8 19.5H57V16.7C57 14.4 55.1 12.5 52.8 12.5H47.2L48.2 13.4C48.4 13.6 48.7 13.8 48.9 14.1C50.6 15.8 51.9 17.9 52.7 20.2C54.5 25.8 53.1 31.8 48.9 36C42.9 42 33 42 27 36C22.8 31.8 21.4 25.8 23.2 20.2C24 17.9 25.2 15.8 27 14.1C27.2 13.9 27.5 13.6 27.7 13.4L28.7 12.5H22V10.6C22 9.4 21 8.5 19.9 8.5H2.1C1 8.5 0 9.5 0 10.6V50.5C0 54.4 3.1 57.5 7 57.5H65.8C68.1 57.5 70 55.6 70 53.3V23.7C70 21.4 68.1 19.5 65.8 19.5ZM52.8 13.5C54.6 13.5 56 14.9 56 16.7V19.5H53.5C52.7 17.3 51.4 15.2 49.8 13.5H52.8ZM50.7 35.6L53.2 38.1C53 38.2 52.9 38.3 52.8 38.5L51.5 39.8C51.4 39.9 51.2 40.1 51.1 40.2L48.6 37.7L49.7 36.6L50.7 35.6ZM54.2 38.6C54.7 38.4 55.1 38.3 55.6 38.3C56.4 38.3 57.2 38.6 57.8 39.2L61.6 43L56 48.7L56.7 49.4L62.4 43.7L64.1 45.4C65.3 46.6 65.3 48.6 64.1 49.7L62.8 51C61.6 52.2 59.6 52.2 58.4 51L52.1 44.7C51.1 43.7 50.9 42.3 51.5 41.1C51.6 40.8 51.8 40.6 52.1 40.3L53.4 39C53.7 39 54 38.8 54.2 38.6ZM1 50.5V10.6C1 10 1.5 9.5 2.1 9.5H19.9C20.5 9.5 21 10 21 10.6V13.5H26.2C24.5 15.2 23.3 17.3 22.5 19.5H17.3C15 19.5 13.1 21.4 13.1 23.7V50.5C13.1 53.8 10.4 56.5 7.1 56.5C3.8 56.5 1 53.8 1 50.5ZM69 53.3C69 55.1 67.6 56.5 65.8 56.5H10.6L10.7 56.4C10.9 56.3 11 56.2 11.2 56.1C11.3 56.1 11.3 56 11.4 56C11.6 55.8 11.8 55.7 12 55.5L12.1 55.4C12.2 55.2 12.4 55.1 12.5 54.9C12.6 54.8 12.6 54.8 12.7 54.7C12.8 54.5 12.9 54.4 13 54.2C13 54.1 13.1 54.1 13.1 54C13.2 53.8 13.4 53.5 13.5 53.3V53.2C13.6 53 13.7 52.7 13.7 52.5C13.7 52.4 13.7 52.3 13.8 52.3C13.8 52.1 13.9 51.9 13.9 51.7C13.9 51.6 13.9 51.5 13.9 51.5C13.9 51.2 14 50.9 14 50.7V23.7C14 21.9 15.4 20.5 17.2 20.5H22.1C20.5 26.3 22.1 32.4 26.3 36.7C32.1 42.5 41.3 43.1 47.7 38.3L50.6 41.2C50 42.7 50.3 44.4 51.5 45.6L57.8 51.9C58.6 52.7 59.6 53.1 60.7 53.1C61.8 53.1 62.8 52.7 63.6 51.9L64.9 50.6C66.5 49 66.5 46.4 64.9 44.8L58.6 38.5C57.4 37.3 55.7 37 54.2 37.6L51.4 34.8C54.4 30.7 55.4 25.5 54 20.5H57H65.8C67.6 20.5 69 21.9 69 23.7V53.3Z" fill="#737373"/>
<path d="M18.5 11.5H3.5V12.5H18.5V11.5Z" fill="#737373"/>
<path d="M27.3999 16.4998H28.4999H28.5999H47.3999H47.4999H48.5999L47.5999 15.4998C46.2999 14.1998 44.8999 13.2998 43.1999 12.5998C39.8999 11.1998 36.0999 11.1998 32.7999 12.5998C31.1999 13.2998 29.6999 14.2998 28.3999 15.4998L27.3999 16.4998ZM33.1999 13.4998C36.2999 12.1998 39.7999 12.1998 42.7999 13.4998C43.9999 13.9998 45.0999 14.6998 46.0999 15.4998H29.8999C30.8999 14.5998 31.9999 13.9998 33.1999 13.4998Z" fill="#737373"/>
<path d="M38.3999 0H37.3999V4H38.3999V0Z" fill="#737373"/>
<path d="M28.8437 3.24348L28.1367 3.95068L30.9655 6.77868L31.6725 6.07148L28.8437 3.24348Z" fill="#737373"/>
<path d="M47.3689 3.25314L44.5405 6.08154L45.2476 6.78864L48.076 3.96024L47.3689 3.25314Z" fill="#737373"/>
<path d="M50.5 22.5H25.5V23.5H50.5V22.5Z" fill="#737373"/>
</g>
<defs>
<clipPath id="clip0_6033_9259">
<rect width="70" height="57.5" fill="white"/>
</clipPath>
</defs>
</svg>
